HIERARCHY
ROOT Hips
{
	OFFSET 0.000000 89.005402 0.000000
	CHANNELS 6 Xposition Yposition Zposition Xrotation Yrotation Zrotation
	JOINT Spine
	{
		OFFSET 0.116900 10.681000 0.373400
		CHANNELS 3 Xrotation Yrotation Zrotation
		JOINT Spine1
		{
			OFFSET 0.000000 13.840401 0.053500
			CHANNELS 3 Xrotation Yrotation Zrotation
			JOINT Spine2
			{
				OFFSET 0.000000 14.712700 -0.366200
				CHANNELS 3 Xrotation Yrotation Zrotation
				JOINT Neck
				{
					OFFSET 0.000000 35.415497 -3.314200
					CHANNELS 3 Xrotation Yrotation Zrotation
					JOINT Head
					{
						OFFSET 0.000000 16.899200 1.218300
						CHANNELS 3 Xrotation Yrotation Zrotation
						JOINT HeadTop_End
						{
							OFFSET 0.000000 22.206207 2.192500
							CHANNELS 3 Xrotation Yrotation Zrotation
							End Site
							{
								OFFSET 0.000000 22.314178 0.000000
							}
						}
					}
				}
				JOINT LeftShoulder
				{
					OFFSET 12.896400 26.716293 -4.548400
					CHANNELS 3 Xrotation Yrotation Zrotation
					JOINT LeftArm
					{
						OFFSET 19.027000 -4.857010 -1.718400
						CHANNELS 3 Xrotation Yrotation Zrotation
						JOINT LeftForeArm
						{
							OFFSET 24.179897 0.000000 0.000000
							CHANNELS 3 Xrotation Yrotation Zrotation
							JOINT LeftHand
							{
								OFFSET 27.156403 0.000000 0.000000
								CHANNELS 3 Xrotation Yrotation Zrotation
								JOINT LeftHandIndex1
								{
									OFFSET 16.441200 0.000000 0.000000
									CHANNELS 3 Xrotation Yrotation Zrotation
									JOINT LeftHandIndex2
									{
										OFFSET 4.821899 0.000000 0.000000
										CHANNELS 3 Xrotation Yrotation Zrotation
										JOINT LeftHandIndex3
										{
											OFFSET 6.386497 0.000000 0.000000
											CHANNELS 3 Xrotation Yrotation Zrotation
											JOINT LeftHandIndex4
											{
												OFFSET 5.188988 0.000000 0.000000
												CHANNELS 3 Xrotation Yrotation Zrotation
												End Site
												{
													OFFSET -0.178703 5.185913 0.000177
												}
											}
										}
									}
								}
								JOINT LeftHandThumb1
								{
									OFFSET 6.534897 -5.032593 5.900300
									CHANNELS 3 Xrotation Yrotation Zrotation
									JOINT LeftHandThumb2
									{
										OFFSET 3.818176 -2.204422 2.204423
										CHANNELS 3 Xrotation Yrotation Zrotation
										JOINT LeftHandThumb3
										{
											OFFSET 3.252098 -1.877594 1.877601
											CHANNELS 3 Xrotation Yrotation Zrotation
											JOINT LeftHandThumb4
											{
												OFFSET 5.251778 -3.032120 3.032117
												CHANNELS 3 Xrotation Yrotation Zrotation
												End Site
												{
													OFFSET 0.000023 6.780014 0.000000
												}
											}
										}
									}
								}
							}
						}
					}
				}
				JOINT RightShoulder
				{
					OFFSET -12.896300 26.716293 -4.548400
					CHANNELS 3 Xrotation Yrotation Zrotation
					JOINT RightArm
					{
						OFFSET -19.027000 -4.857010 -1.718400
						CHANNELS 3 Xrotation Yrotation Zrotation
						JOINT RightForeArm
						{
							OFFSET -24.179897 0.000000 0.000000
							CHANNELS 3 Xrotation Yrotation Zrotation
							JOINT RightHand
							{
								OFFSET -27.156403 0.000000 0.000000
								CHANNELS 3 Xrotation Yrotation Zrotation
								JOINT RightHandThumb1
								{
									OFFSET -6.591202 -4.852203 5.988100
									CHANNELS 3 Xrotation Yrotation Zrotation
									JOINT RightHandThumb2
									{
										OFFSET -3.818176 -2.204422 2.204423
										CHANNELS 3 Xrotation Yrotation Zrotation
										JOINT RightHandThumb3
										{
											OFFSET -3.252098 -1.877594 1.877601
											CHANNELS 3 Xrotation Yrotation Zrotation
											JOINT RightHandThumb4
											{
												OFFSET -5.251778 -3.032120 3.032117
												CHANNELS 3 Xrotation Yrotation Zrotation
												End Site
												{
													OFFSET -0.000023 6.780014 0.000000
												}
											}
										}
									}
								}
								JOINT RightHandIndex1
								{
									OFFSET -16.029404 0.000000 0.000000
									CHANNELS 3 Xrotation Yrotation Zrotation
									JOINT RightHandIndex2
									{
										OFFSET -5.213303 0.000000 0.000000
										CHANNELS 3 Xrotation Yrotation Zrotation
										JOINT RightHandIndex3
										{
											OFFSET -6.386528 0.000000 0.000000
											CHANNELS 3 Xrotation Yrotation Zrotation
											JOINT RightHandIndex4
											{
												OFFSET -5.189026 0.000000 0.000000
												CHANNELS 3 Xrotation Yrotation Zrotation
												End Site
												{
													OFFSET 0.236702 5.183624 0.001972
												}
											}
										}
									}
								}
							}
						}
					}
				}
			}
		}
	}
	JOINT LeftUpLeg
	{
		OFFSET 14.073000 -7.904099 -1.463000
		CHANNELS 3 Xrotation Yrotation Zrotation
		JOINT LeftLeg
		{
			OFFSET -0.109806 -34.073280 4.093200
			CHANNELS 3 Xrotation Yrotation Zrotation
			JOINT LeftFoot
			{
				OFFSET 0.109806 -29.899420 -6.319000
				CHANNELS 3 Xrotation Yrotation Zrotation
				JOINT LeftToeBase
				{
					OFFSET 1.551100 -14.988700 20.535801
					CHANNELS 3 Xrotation Yrotation Zrotation
					JOINT LeftToe_End
					{
						OFFSET 0.221200 0.570800 13.248301
						CHANNELS 3 Xrotation Yrotation Zrotation
						End Site
						{
							OFFSET 0.000000 13.262435 0.000000
						}
					}
				}
			}
		}
	}
	JOINT RightUpLeg
	{
		OFFSET -13.839300 -7.904099 -1.463000
		CHANNELS 3 Xrotation Yrotation Zrotation
		JOINT RightLeg
		{
			OFFSET 0.109694 -34.073219 4.093300
			CHANNELS 3 Xrotation Yrotation Zrotation
			JOINT RightFoot
			{
				OFFSET -0.109694 -29.899384 -6.319200
				CHANNELS 3 Xrotation Yrotation Zrotation
				JOINT RightToeBase
				{
					OFFSET -1.551100 -14.988700 20.535801
					CHANNELS 3 Xrotation Yrotation Zrotation
					JOINT RightToe_End
					{
						OFFSET -0.221200 0.570900 13.248299
						CHANNELS 3 Xrotation Yrotation Zrotation
						End Site
						{
							OFFSET 0.000000 13.262440 0.000000
						}
					}
				}
			}
		}
	}
}
MOTION
Frames: 4
Frame Time: 0.033333
-1.017808 50.359375 9.824799 -19.189500 -4.201801 -4.914614 16.297690 3.712540 3.206646 0.514183 0.063771 1.319654 0.522217 -0.051624 1.339408 -6.165751 0.133595 0.487189 1.566353 2.221338 -0.864189 0.000000 0.000000 -0.000000 3.742342 -29.062868 5.410278 13.519165 5.590509 -92.208435 0.000279 -82.919992 0.000279 81.565737 -27.220799 42.649132 6.367216 12.661878 -56.126045 0.370649 2.779405 -20.099397 -0.000686 0.509492 -7.119557 -0.000000 -0.000001 0.000002 5.870463 -22.804926 -17.769377 1.200067 15.040302 -1.289336 7.272838 10.581310 -17.429589 -0.000000 0.000000 0.000002 4.570379 19.775448 -8.429194 -1.616889 55.350781 64.947634 -0.000018 59.874094 0.000001 41.200534 9.313214 -46.296385 -12.674248 22.466466 3.913727 4.337947 -49.682970 -17.943957 2.968114 -19.172208 13.301056 -0.000002 0.000001 0.000000 -2.107838 -6.896869 55.679647 0.373282 -2.786623 20.175511 -0.196299 0.093514 10.878854 0.000003 -0.000004 0.000002 -87.990076 15.325315 -5.185316 80.360919 1.663423 -8.894553 35.532686 -1.878257 -5.304597 0.192828 -0.000010 -0.000002 0.000000 -0.000001 0.000001 -68.239703 -8.877968 30.569444 73.106076 -13.012233 0.662233 11.349864 -17.986881 -9.211900 0.799469 -0.000001 -0.000004 -0.000000 0.000000 0.000000 
-1.011449 50.353012 9.808538 -19.251925 -4.210452 -4.890644 16.251221 3.710286 3.227764 0.609663 0.059096 1.285291 0.617473 -0.055316 1.304479 -6.180199 0.135571 0.487347 1.473138 2.230666 -0.861810 0.000000 0.000000 -0.000000 3.588366 -29.050126 5.005406 13.530440 5.596658 -91.681725 0.000290 -83.026550 0.000301 81.333879 -27.189011 42.557495 6.370491 12.663734 -56.128490 0.371918 2.782867 -20.135794 -0.000356 0.513151 -7.155889 0.000001 -0.000000 0.000000 5.947856 -22.829871 -17.737323 1.222129 15.025439 -1.316806 7.248502 10.581340 -17.418649 -0.000001 -0.000003 0.000001 4.482645 19.721056 -7.979663 -1.004631 55.412102 64.099925 -0.000001 59.996655 0.000000 41.142877 9.207702 -46.186764 -12.656357 22.420666 3.879847 4.350840 -49.667831 -17.964934 2.974648 -19.189456 13.306376 0.000000 -0.000000 0.000000 -2.105095 -6.900009 55.689507 0.373869 -2.788186 20.191977 -0.196345 0.091808 10.895268 -0.000001 -0.000001 -0.000000 -87.934157 15.301668 -5.207989 80.358897 1.676479 -8.896864 35.483710 -1.883990 -5.388100 0.196571 -0.000005 0.000001 -0.000001 -0.000002 0.000001 -68.200600 -8.854015 30.546918 73.123104 -13.005061 0.674101 11.355488 -17.974647 -9.217832 0.799403 -0.000000 -0.000001 -0.000000 -0.000000 0.000000 
-1.011064 50.348640 9.792831 -19.331327 -4.215792 -4.851238 16.189346 3.707801 3.255706 0.723900 0.052378 1.237810 0.731409 -0.060771 1.256300 -6.190790 0.137822 0.487024 1.386159 2.240420 -0.860241 -0.000000 0.000000 -0.000000 3.423826 -29.055024 4.574038 13.530872 5.615641 -91.076748 -0.000030 -83.115035 -0.000043 81.072016 -27.147809 42.498475 6.374849 12.668039 -56.110639 0.371947 2.782937 -20.136564 -0.000349 0.513221 -7.156632 -0.000002 0.000001 -0.000001 6.026874 -22.872620 -17.697440 1.248050 15.008477 -1.351103 7.224266 10.590517 -17.407422 -0.000000 -0.000001 0.000001 4.387751 19.677753 -7.497877 -0.430825 55.483563 63.261711 0.000014 60.050046 -0.000009 41.069545 9.096880 -46.120046 -12.622829 22.365080 3.837713 4.347977 -49.660519 -17.987074 2.974923 -19.193803 13.302862 -0.000003 -0.000001 0.000000 -2.112042 -6.893800 55.677342 0.373828 -2.788076 20.190919 -0.196315 0.091900 10.894217 0.000002 -0.000002 0.000002 -87.841997 15.305542 -5.231000 80.369429 1.684367 -8.903158 35.427904 -1.890711 -5.488466 0.194777 0.000004 -0.000004 -0.000002 -0.000000 0.000001 -68.140569 -8.825702 30.521120 73.144503 -13.000569 0.681749 11.354323 -17.964222 -9.229775 0.797474 0.000000 0.000000 0.000000 0.000000 0.000000 
-1.017842 50.343613 9.782682 -19.425181 -4.214806 -4.811652 16.112915 3.706103 3.289710 0.855449 0.043928 1.179206 0.862593 -0.067722 1.196875 -6.198250 0.140529 0.485500 1.304376 2.250430 -0.862123 -0.000000 0.000000 -0.000000 3.247920 -29.076040 4.113772 13.525787 5.649833 -90.408031 0.000435 -83.203350 0.000429 80.801766 -27.089521 42.465014 6.374511 12.670176 -56.083134 0.370780 2.779785 -20.103221 -0.000654 0.509857 -7.123331 0.000001 0.000001 0.000001 6.091312 -22.919666 -17.660040 1.271077 14.993836 -1.383225 7.204011 10.602801 -17.397916 0.000001 -0.000004 -0.000000 4.286479 19.645552 -6.987940 0.127875 55.565447 62.407596 0.000019 60.046003 -0.000016 40.975920 9.014633 -46.116560 -12.585580 22.312724 3.797895 4.334967 -49.660297 -18.005016 2.970707 -19.188662 13.293383 0.000001 0.000000 -0.000000 -2.121469 -6.884397 55.653102 0.373062 -2.785997 20.168850 -0.196290 0.094209 10.872203 -0.000000 -0.000002 0.000001 -87.731410 15.321713 -5.251091 80.393963 1.690570 -8.912712 35.407830 -1.898575 -5.578178 0.189843 -0.000001 0.000001 -0.000000 0.000001 0.000001 -68.063627 -8.799346 30.507146 73.171687 -13.006911 0.685419 11.344808 -17.960652 -9.243187 0.796579 -0.000001 -0.000000 0.000000 0.000000 0.000000 
